<svg xmlns="http://www.w3.org/2000/svg" viewBox="0 0 600 600"><defs><style>.cls-1{fill:#534741;}</style></defs><title>11points</title><g id="Lager_1" data-name="Lager 1"><path class="cls-1" d="M300,85.63l27,92.44,4.37,15,11.78-10.22,72.71-63.16L388.66,212l-4.42,15,15.44-2.24L495,211l-72.85,63-11.8,10.21,14.19,6.46,87.65,39.91L416.84,344.1l-15.44,2.21,8.45,13.11,52.16,81-87.56-40.11-14.18-6.5v15.6l.11,96.31-52-81.08L300,411.47l-8.42,13.13-52,81.08.11-96.31v-15.6l-14.18,6.5L138,440.38l52.16-81,8.45-13.11-15.44-2.21L87.82,330.51l87.65-39.91,14.19-6.46-11.8-10.21L105,211l95.31,13.81L215.76,227l-4.42-15-27.23-92.38,72.71,63.16L268.6,193l4.37-15,27-92.44M300,50,263.37,175.27,164.84,89.69l36.91,125.18L72.59,196.15l98.73,85.35L52.54,335.58,181.75,354,111.06,463.72l118.66-54.36-.15,130.51L300,430l70.43,109.87-.15-130.51,118.66,54.36L418.25,354l129.21-18.42L428.68,281.5l98.73-85.35L398.25,214.87,435.16,89.69l-98.53,85.58L300,50Z"/></g><g id="Lager_2" data-name="Lager 2"><path class="cls-1" d="M300,73.62l36,77.09,4.8,10.28,9.59-6.05,72-45.38L411,193.89l-1.52,11.23,11.34.1,85.09.74-55.16,64.79-7.35,8.63,9.48,6.21,71.18,46.63L442.64,356.9l-10.85,3.29,4.62,10.35,34.67,77.7L389.24,425l-10.91-3.1-1.71,11.21-12.84,84.12L307.5,453.39l-7.5-8.51-7.5,8.51-56.28,63.82-12.84-84.12-1.71-11.21L210.76,425l-81.84,23.26,34.67-77.7,4.62-10.35-10.85-3.29L75.93,332.22l71.18-46.63,9.48-6.21-7.35-8.63L94.08,206l85.09-.74,11.34-.1L189,193.89l-11.38-84.33,72,45.38,9.59,6.05,4.8-10.28,36-77.09M300,50l-45.08,96.48L164.84,89.69l14.24,105.53-106.49.93,69,81.08L52.54,335.58l101.92,30.89-43.4,97.25L213.5,434.6l16.07,105.27L300,460l70.43,79.87L386.5,434.6l102.44,29.12-43.4-97.25,101.92-30.89-89.09-58.35,69-81.08-106.49-.93L435.16,89.69l-90.08,56.79L300,50Z"/></g><g id="Lager_3" data-name="Lager 3"><path class="cls-1" d="M300,167.25,314.82,218l4.38,15L331,222.69l39.88-34.63-14.94,50.66-4.41,15,15.43-2.24,52.28-7.57-40,34.54-11.8,10.2,14.2,6.47L429.73,317l-52.29,7.46L362,326.62l8.45,13.12,28.61,44.4-48-22-14.18-6.49v15.6l.06,52.82-28.5-44.47L300,366.47l-8.42,13.13-28.5,44.47.06-52.82v-15.6L249,362.14l-48,22,28.61-44.4L238,326.62l-15.45-2.2L170.27,317l48.07-21.88,14.2-6.47-11.8-10.2-40-34.54,52.28,7.57,15.43,2.24-4.41-15-14.94-50.66L269,222.69l11.78,10.23,4.38-15L300,167.25m0-35.63-24.42,83.52-65.7-57.06,24.61,83.47-86.12-12.49L214.2,286,135,322l86.15,12.28L174,407.48l79.12-36.25-.1,87L300,385l47,73.26-.1-87L426,407.48l-47.13-73.16L465,322,385.8,286l65.83-56.92-86.12,12.49,24.61-83.47-65.7,57.06L300,131.62Z"/></g></svg>