<svg xmlns="http://www.w3.org/2000/svg" viewBox="0 0 600 600"><defs><style>.cls-1{fill:#534741;}</style></defs><title>7points</title><g id="Lager_1" data-name="Lager 1"><path class="cls-1" d="M300,75.59l47.2,111.19,3.43,8.08,8.46-2.35,116.36-32.43L418,266.31,413.77,274l7.11,5.15,97.9,70.76-118.9,21.27-8.65,1.55.42,8.77,5.72,120.65L306.6,422.49l-6.6-5.8-6.6,5.8-90.77,79.69,5.72-120.65.42-8.77-8.65-1.55L81.22,349.94l97.9-70.76,7.11-5.15-4.18-7.72-57.5-106.23,116.36,32.43,8.46,2.35,3.43-8.08L300,75.59M300,50,243.6,182.87,104.54,144.13l68.72,126.94-117,84.56,142.09,25.42-6.83,144.19L300,430l108.47,95.24-6.83-144.19,142.09-25.42-117-84.56,68.72-126.94L356.4,182.87,300,50Z"/></g><g id="Lager_2" data-name="Lager 2"><path class="cls-1" d="M300,70.28l56.38,99.5,3.42,6,6.85-1.09,113-18L437,262.89l-2.59,6.44L439.5,274,524,351.12,414.4,383.94l-6.64,2-.46,6.92L399.67,507l-94-65.19-5.7-3.95-5.7,3.95-94,65.19L192.7,392.86l-.46-6.92-6.64-2L76,351.12,160.5,274l5.13-4.68L163,262.89,120.4,156.77l113,18,6.85,1.09,3.42-6L300,70.28M300,50,234.92,164.85,104.54,144.13l49.22,122.49-97.49,89,126.46,37.89,8.8,131.72L300,450l108.47,75.24,8.8-131.72,126.46-37.89-97.49-89,49.22-122.49L365.08,164.85,300,50Z"/></g><g id="Lager_3" data-name="Lager 3"><path class="cls-1" d="M300,142.6l31.29,73.72,3.43,8.08,8.46-2.35,77.15-21.5L382.21,271,378,278.7l7.11,5.14,64.91,46.92-78.83,14.1-8.65,1.55.42,8.77,3.79,80L306.6,382.34l-6.6-5.8-6.6,5.8-60.18,52.84,3.79-80,.42-8.77-8.65-1.55L150,330.76l64.91-46.92L222,278.7,217.79,271l-38.12-70.43,77.15,21.5,8.46,2.35,3.43-8.08L300,142.6M300,117l-40.5,95.4-99.84-27.82L209,275.74l-84,60.71,102,18.26-4.9,103.52L300,389.85l77.88,68.38L373,354.71l102-18.26-84-60.71,49.34-91.15L340.5,212.41,300,117Z"/></g></svg>