<svg xmlns="http://www.w3.org/2000/svg" viewBox="0 0 600 600"><defs><style>.cls-1{fill:#534741;}</style></defs><title>9points</title><g id="Lager_1" data-name="Lager 1"><path class="cls-1" d="M300,80.44l35,100.68,4,11.59,10.54-6.28,91.54-54.62-37.89,99.64-4.37,11.46,12.12,2,105.23,17-93.07,52-10.71,6,8,9.28,69.68,80.67-104.7-20-12.05-2.3.17,12.27,1.53,106.59-67.34-82.64L300,414.17l-7.75,9.51-67.34,82.64,1.53-106.59.17-12.27-12.05,2.3-104.7,20,69.68-80.67,8-9.28-10.71-6-93.07-52,105.23-17,12.12-2-4.37-11.46-37.89-99.64,91.54,54.62L261,192.71l4-11.59L300,80.44M300,50,255.54,177.84,139.3,108.49,187.42,235,53.8,256.59l118.17,66L83.49,425l133-25.41-1.95,135.33L300,430l85.51,104.92-1.95-135.33,133,25.41L428,322.57l118.17-66L412.58,235,460.7,108.49,344.46,177.84,300,50Z"/></g><g id="Lager_2" data-name="Lager 2"><path class="cls-1" d="M300,72.08l44.1,86.8,4.23,8.33,8.6-3.66,89.58-38.15-22,94.84-2.11,9.1,8.94,2.73,93.14,28.35-77.82,58.5-7.48,5.62,5.1,7.83L497.39,414l-97.22-5.21-9.34-.5-1.12,9.28L378,514.18l-71.12-66.49L300,441.31l-6.83,6.38-71.12,66.49-11.76-96.65-1.12-9.28-9.34.5L102.61,414l53.13-81.59,5.1-7.83-7.48-5.62-77.82-58.5,93.14-28.35,8.94-2.73-2.11-9.1-22-94.84,89.58,38.15,8.6,3.66,4.23-8.33L300,72.08M300,50,247,154.35,139.3,108.49l26.47,114-112,34.09,93.55,70.33L83.49,425l116.88-6.26,14.12,116.18L300,455l85.51,79.92,14.12-116.18L516.51,425l-63.86-98.08,93.55-70.33-112-34.09,26.47-114L353,154.35,300,50Z"/></g><g id="Lager_3" data-name="Lager 3"><path class="cls-1" d="M300,150.56l22.16,63.71,4,11.59,10.54-6.28L394.66,185l-24,63.05-4.36,11.47,12.11,2L445,272.25l-58.9,32.88-10.71,6,8,9.28,44.1,51.05-66.26-12.67-12-2.3.18,12.27,1,67.45-42.62-52.29L300,374.39l-7.75,9.52L249.63,436.2l1-67.45.18-12.27-12.05,2.3-66.26,12.67,44.1-51.05,8-9.28-10.71-6L155,272.25l66.59-10.76,12.11-2-4.36-11.47-24-63.05,57.93,34.57,10.54,6.28,4-11.59L300,150.56m0-30.44L268.4,211l-82.62-49.3L220,251.62,125,267l84,46.91-62.89,72.8,94.49-18.06-1.38,96.19L300,390.22l60.78,74.58-1.38-96.19,94.49,18.06L391,313.87,475,267l-95-15.34,34.2-89.93L331.6,211,300,120.12Z"/></g></svg>