<?xml version="1.0" encoding="utf-8"?>
<!-- Generator: Adobe Illustrator 22.0.0, SVG Export Plug-In . SVG Version: 6.00 Build 0)  -->
<svg version="1.1" id="Lager_1" xmlns="http://www.w3.org/2000/svg" xmlns:xlink="http://www.w3.org/1999/xlink" x="0px" y="0px"
	 viewBox="0 0 492.4 484.9" style="enable-background:new 0 0 492.4 484.9;" xml:space="preserve">
<style type="text/css">
	.st0{fill:#534741;}
</style>
<title>9points</title>
<g id="Lager_1_1_">
	<path class="st0" d="M246.2,30.4l35,100.7l4,11.6l10.5-6.3l91.5-54.6l-37.9,99.6l-4.4,11.5l12.1,2l105.2,17l-93.1,52l-10.7,6l8,9.3
		l69.7,80.7l-104.7-20l-12-2.3l0.2,12.3l1.5,106.6l-67.3-82.6l-7.7-9.6l-7.8,9.5l-67.3,82.6l1.5-106.6l0.2-12.3l-12.1,2.3l-104.7,20
		l69.7-80.7l8-9.3l-10.7-6l-93.1-52l105.2-17l12.1-2l-4.4-11.5l-37.9-99.6l91.5,54.6l10.6,6.4l4-11.6L246.2,30.4 M246.2,0
		l-44.5,127.8L85.5,58.5L133.6,185L0,206.6l118.2,66L29.7,375l133-25.4l-1.9,135.3L246.2,380l85.5,104.9l-2-135.3l133,25.4
		l-88.6-102.4l118.2-66L358.8,185l48.1-126.5l-116.2,69.3L246.2,0z"/>
</g>
<g id="Lager_2_1_">
	<path class="st0" d="M246.2,22.1l44.1,86.8l4.2,8.3l8.6-3.7l89.6-38.2l-22,94.8l-2.1,9.1l8.9,2.7l93.1,28.3l-77.8,58.5l-7.5,5.6
		l5.1,7.8l53.1,81.6l-97.2-5.2l-9.3-0.5l-1.1,9.3l-11.7,96.6l-71.1-66.5l-6.9-6.4l-6.8,6.4l-71.1,66.5l-11.8-96.6l-1.1-9.3l-9.3,0.5
		L48.8,364l53.1-81.6l5.1-7.8l-7.5-5.6l-77.8-58.5l93.1-28.4l8.9-2.7l-2.1-9.1l-22-94.8l89.6,38.2l8.6,3.7l4.2-8.3L246.2,22.1
		 M246.2,0l-53,104.4L85.5,58.5l26.5,114L0,206.6l93.6,70.3L29.7,375l116.9-6.3l14.1,116.2l85.5-79.9l85.5,79.9l14.1-116.2
		l116.9,6.3l-63.9-98.1l93.5-70.3l-112-34.1l26.5-114l-107.7,45.9L246.2,0z"/>
</g>
<g id="Lager_3">
	<path class="st0" d="M246.2,100.6l22.2,63.7l4,11.6l10.5-6.3l58-34.6l-24,63.1l-4.4,11.5l12.1,2l66.6,10.7l-58.9,32.9l-10.7,6
		l8,9.3l44.1,51l-66.3-12.7l-12-2.3l0.2,12.3l1,67.4L254,333.9l-7.8-9.5l-7.8,9.5l-42.6,52.3l1-67.5l0.2-12.3l-12.1,2.3l-66.3,12.7
		l44.1-51l8-9.3l-10.7-6l-58.9-32.9l66.6-10.8l12.1-2l-4.4-11.5l-24-63.1l57.9,34.6l10.5,6.3l4-11.6L246.2,100.6 M246.2,70.1
		L214.6,161L132,111.7l34.2,89.9l-95,15.4l84,46.9l-62.9,72.8l94.5-18.1l-1.4,96.2l60.8-74.6l60.8,74.6l-1.4-96.2l94.5,18.1
		l-62.9-72.8l84-46.9l-95-15.3l34.2-89.9L277.8,161C277.8,161,246.2,70.1,246.2,70.1z"/>
</g>
</svg>
