<svg xmlns="http://www.w3.org/2000/svg" viewBox="0 0 600 600"><defs><style>.cls-1{fill:#534741;}</style></defs><title>5points</title><g id="Lager_3" data-name="Lager 3"><path class="cls-1" d="M300.05,150.25l37.53,108,2.28,6.57,7,.15,114.27,2.32L370,336.29l-5.54,4.21,2,6.66,33.1,109.39-93.82-65.28-5.71-4-5.71,4-93.81,65.28,33.09-109.39,2-6.66-5.55-4.21L139,267.24l114.27-2.32,7-.15,2.29-6.57,37.52-107.95m0-30.46-47,135.13-143,2.91,114,86.43L182.63,481.19l117.42-81.71,117.43,81.71L376.05,344.26l114-86.43-143-2.91-47-135.13Z"/></g><g id="Lager_5" data-name="Lager 5"><path class="cls-1" d="M300.05,92.05,380,208.66l2,2.94,3.41,1,135.6,40-86.2,112.05-2.17,2.82.1,3.55,3.88,141.32L303.4,464.94l-3.35-1.19-3.35,1.19L163.5,512.31,167.39,371l.1-3.55-2.17-2.82-86.21-112,135.6-40,3.41-1,2-2.94L300.05,92.05m0-17.69L211.89,203l-149.6,44.1,95.1,123.61-4.28,155.9,146.94-52.26,147,52.26-4.29-155.9,95.11-123.61L388.22,203,300.05,74.36Z"/></g><g id="Lager_6" data-name="Lager 6"><path class="cls-1" d="M300.05,95.79l67.57,128.07,2.3,4.35,4.84.83,142.68,24.69L416.52,357.57l-3.43,3.52.7,4.87L434.4,509.28,304.47,445.39l-4.42-2.17-4.41,2.17L165.7,509.28,186.31,366l.7-4.87-3.42-3.52L82.67,253.73,225.35,229l4.84-.83,2.3-4.35L300.05,95.79m0-21.43L223.64,219.19,62.29,247.11,176.42,364.54,153.11,526.62l146.94-72.26,147,72.26L423.69,364.54,537.82,247.11,376.47,219.19,300.05,74.36Z"/></g></svg>